<svg width="62" height="62" viewBox="0 0 62 62" fill="none" xmlns="http://www.w3.org/2000/svg">
<path d="M42.8937 28.5407C44.467 25.8594 45.1465 22.747 44.8337 19.654C44.3713 15.0453 41.7983 10.9714 37.5927 8.18399L34.7381 12.4878C37.6288 14.4047 39.3881 17.1352 39.6929 20.1707C39.8335 21.5814 39.6578 23.0058 39.1788 24.3401C38.6997 25.6745 37.9293 26.8853 36.9236 27.8845L33.8442 30.9638L38.0241 32.1909C48.9567 35.3942 49.0833 46.3889 49.0833 46.5H54.25C54.25 41.8784 51.7803 32.8471 42.8937 28.5407Z" fill="white"/>
<path d="M24.5417 31C30.2405 31 34.875 26.3655 34.875 20.6667C34.875 14.9678 30.2405 10.3333 24.5417 10.3333C18.8428 10.3333 14.2083 14.9678 14.2083 20.6667C14.2083 26.3655 18.8428 31 24.5417 31ZM24.5417 15.5C27.3911 15.5 29.7083 17.8173 29.7083 20.6667C29.7083 23.5161 27.3911 25.8333 24.5417 25.8333C21.6922 25.8333 19.375 23.5161 19.375 20.6667C19.375 17.8173 21.6922 15.5 24.5417 15.5ZM28.4167 33.5833H20.6667C12.1184 33.5833 5.16666 40.5351 5.16666 49.0833V51.6667H10.3333V49.0833C10.3333 43.3845 14.9678 38.75 20.6667 38.75H28.4167C34.1155 38.75 38.75 43.3845 38.75 49.0833V51.6667H43.9167V49.0833C43.9167 40.5351 36.9649 33.5833 28.4167 33.5833Z" fill="white"/>
</svg>
