<svg width="52" height="50" viewBox="0 0 52 50" fill="none" xmlns="http://www.w3.org/2000/svg">
<path d="M2.58278 27.5002H5.16612V45C5.16612 47.7575 7.48337 50 10.3328 50H41.3328C44.1822 50 46.4994 47.7575 46.4994 45V27.5002H49.0828C49.5936 27.5001 50.093 27.3534 50.5177 27.0787C50.9424 26.804 51.2735 26.4136 51.4689 25.9569C51.6644 25.5001 51.7156 24.9976 51.616 24.5127C51.5163 24.0278 51.2704 23.5824 50.9092 23.2328L27.6592 0.732995C27.4195 0.500633 27.1348 0.316291 26.8214 0.190515C26.508 0.0647395 26.1721 0 25.8328 0C25.4935 0 25.1576 0.0647395 24.8442 0.190515C24.5308 0.316291 24.2461 0.500633 24.0064 0.732995L0.756366 23.2328C0.395192 23.5824 0.149242 24.0278 0.049609 24.5127C-0.0500239 24.9976 0.00113396 25.5001 0.196615 25.9569C0.392096 26.4136 0.723123 26.804 1.14785 27.0787C1.57257 27.3534 2.07193 27.5001 2.58278 27.5002ZM20.6661 45V32.5002H30.9994V45H20.6661ZM25.8328 6.03544L41.3328 21.0353V32.5002L41.3354 45H36.1661V32.5002C36.1661 29.7427 33.8489 27.5002 30.9994 27.5002H20.6661C17.8167 27.5002 15.4994 29.7427 15.4994 32.5002V45H10.3328V21.0353L25.8328 6.03544Z" fill="white"/>
</svg>
